<svg id="_x33_0" enable-background="new 0 0 64 64" height="512" viewBox="0 0 64 64" width="512" xmlns="http://www.w3.org/2000/svg"><g><path d="m11 40.123c0-2.4.264-4.802.762-7.153l-1.112-.953c-4.248.186-7.65 3.69-7.65 7.983v1h8z"/><path d="m26 32.671v-13.489l.9-.182c2.041-.408 3.602-2.018 4-4h-11.8c.398 1.982 1.959 3.592 4 4l.099.02.801.162v13.489c.596.396 1.404.396 2 0z"/><path d="m37.347 31.1-3.429-2.286-6.511 5.327c-.678.554-1.532.859-2.407.859s-1.729-.305-2.407-.859l-6.511-5.327-3.429 2.286 12.347 10.583z"/><path d="m9.513 47.89c.185-.144.383-.266.589-.374l-4.516-4.516h-.586v2.586l3.27 3.27z"/><path d="m42.684 32.902c-1.031-.538-2.167-.826-3.345-.875l-1.099.942c.265 1.251.461 2.518.586 3.791z"/><path d="m31 50.586 24.915-24.915-.529-2.643-25.972 25.972z"/><path d="m22 20.773c-2.971-.947-5-3.672-5-6.773v-1h16v1c0 3.127-2.063 5.872-5 6.781v10.291l7.979-6.529-.812-18.673c-.069-1.61-1.387-2.87-2.997-2.87h-14.34c-1.61 0-2.928 1.26-2.997 2.87l-.813 18.673 7.98 6.529zm3-14.773c1.105 0 2 .895 2 2s-.895 2-2 2-2-.895-2-2 .895-2 2-2z"/><path d="m25 44.317-11.498-9.855c-.331 1.869-.502 3.766-.502 5.661v6.991c.449.092.884.25 1.28.488l8.997 5.398h1.309l-3-3 4.414-4.414 2 2 8.958-8.958c-.065-1.395-.214-2.789-.458-4.168z"/><path d="m5 51.4 1.68-1.306-1.68-1.68z"/><path d="m32.414 52 1.586 1.586 25.972-25.972-2.643-.529z"/><path d="m45 45.414-6 6v2.172l6-6z"/><path d="m45 50.414-1.515 1.515 1.515-.606z"/><path d="m46.073 53.048-5.931 2.372c-1.909.764-3.142 2.586-3.142 4.642v.938h10v-7.323c0-.46-.507-.798-.927-.629z"/><path d="m57.22 22 .63 3.15 3.15.63v-3.78z"/><path d="m37 53.414-1.586 1.586.938.938c.197-.27.413-.525.648-.765z"/><path d="m23.847 55-.797 4.78c.478.749 1.282 1.22 2.186 1.22h3.764c.974 0 1.785-.701 1.962-1.624l-4.376-4.376z"/><path d="m10.741 49.468-7.555 5.876c-.119.093-.186.231-.186.381 0 .24.173.44.41.476l17.765 2.664.726-4.358-8.651-5.19c-.766-.461-1.803-.397-2.509.151z"/><path d="m11 43h-2.586l2.586 2.586z"/><path d="m28.379 47.429h2.243v12.142h-2.243z" transform="matrix(.707 -.707 .707 .707 -29.19 36.529)"/></g></svg>