<svg id="Capa_1" enable-background="new 0 0 512 512" height="512" viewBox="0 0 512 512" width="512" xmlns="http://www.w3.org/2000/svg"><g><path d="m472 512h-432c-2.33 0-4.528-1.083-5.947-2.931-1.42-1.848-1.899-4.25-1.3-6.502l6.062-22.73c3.857-14.462 15.911-25.076 30.348-27.373l4.7-17.627c3.567-13.375 14.146-23.458 27.135-26.716-21.735-19.339-39.895-42.751-53.081-68.575-16.866-33.028-25.417-68.707-25.417-106.046 0-62.37 24.288-121.007 68.391-165.109 44.102-44.103 102.739-68.391 165.109-68.391 19.987 0 39.84 2.531 59.006 7.522 4.009 1.043 6.412 5.14 5.368 9.148s-5.141 6.41-9.147 5.368c-17.934-4.67-36.514-7.038-55.227-7.038-58.363 0-113.233 22.728-154.503 63.997s-63.997 96.14-63.997 154.503c0 34.945 7.999 68.329 23.775 99.225 14.734 28.856 36.108 54.499 61.89 74.275h26.364c-59.788-36.62-97.029-101.82-97.029-173.5 0-47.164 16.504-93.136 46.473-129.448 2.636-3.196 7.364-3.646 10.558-1.011 3.195 2.637 3.647 7.364 1.011 10.559-10.104 12.242-18.553 25.667-25.216 39.903 17.057-16.584 39.436-26.655 63.912-26.655 45.141 0 81.865 33.388 81.865 74.428 0 13.096-3.646 25.275-9.885 35.381 11.689 3.861 21.136 12.594 25.95 23.81 11.989-11.451 28.89-18.597 47.586-18.597 18.617 0 36.25 7.229 50.127 20.227 6.237-14.491 20.657-24.662 37.408-24.662 4.388 0 8.734.71 12.864 2.085 2.283-5.29 4.249-10.735 5.879-16.288-10.345-4.995-17.265-15.577-17.265-27.535 0-14.113 9.613-26.023 22.637-29.525-2.389-28.088-11.436-53.235-19.711-68.387-33.912-32.668-79.999-52.785-130.693-52.785-45.791 0-89.938 16.618-124.308 46.793-3.111 2.732-7.851 2.425-10.584-.688s-2.425-7.852.688-10.584c37.108-32.579 84.769-50.521 134.204-50.521 55.044 0 105.049 21.963 141.719 57.591.158.142.312.292.46.449 37.819 36.972 61.321 88.52 61.321 145.46 0 32.439-7.823 64.716-22.623 93.341-1.903 3.679-6.429 5.12-10.106 3.217-3.68-1.902-5.12-6.427-3.218-10.106 13.899-26.883 20.947-55.97 20.947-86.452 0-36.25-10.284-70.14-28.089-98.91 2.705 11.103 4.798 23.8 5.42 37.703.092 2.045-.656 4.039-2.071 5.519s-3.373 2.317-5.421 2.317c-8.586 0-15.571 6.984-15.571 15.569 0 7.501 5.34 13.938 12.696 15.307 2.024.376 3.805 1.568 4.924 3.296 1.119 1.729 1.479 3.84.994 5.841-2.728 11.271-6.696 22.221-11.796 32.545-.918 1.859-2.565 3.255-4.549 3.856-1.981.602-4.129.354-5.925-.682-3.884-2.242-8.318-3.426-12.823-3.426-14.173 0-25.704 11.531-25.704 25.705 0 3.246-2.088 6.123-5.173 7.13-3.085 1.008-6.468-.085-8.383-2.705-11.932-16.33-29.527-25.695-48.275-25.695-28.005 0-50.789 20.169-50.789 44.96 0 19.97 14.285 36.217 31.845 36.217 13.944 0 25.288-9.873 25.288-22.009 0-9.424-6.563-17.09-14.632-17.09-4.143 0-7.5-3.358-7.5-7.5s3.357-7.5 7.5-7.5c16.339 0 29.632 14.396 29.632 32.09 0 20.407-18.073 37.009-40.288 37.009-25.83 0-46.845-22.976-46.845-51.217 0-9.388 2.38-18.278 6.617-26.197-.864-13.664-11.494-24.621-25.011-25.995-10.047 9.3-23.02 14.911-37.165 14.911-27.2 0-49.33-20.253-49.33-45.147 0-21.435 16.031-38.873 35.735-38.873 4.143 0 7.5 3.358 7.5 7.5s-3.357 7.5-7.5 7.5c-11.434 0-20.735 10.709-20.735 23.873 0 16.623 15.4 30.147 34.33 30.147 23.543 0 42.696-21.655 42.696-48.273 0-32.769-29.996-59.428-66.865-59.428-45.07 0-81.737 41.115-81.737 91.653 0 75.824 44.979 143.817 114.683 173.5h147.635c31.232-13.304 58.348-34.858 78.468-62.384 2.444-3.344 7.137-4.074 10.48-1.629 3.344 2.444 4.073 7.137 1.629 10.48-15.748 21.545-35.473 39.703-57.985 53.532h26.426c25.775-19.772 47.144-45.405 61.878-74.252 15.784-30.902 23.787-64.294 23.787-99.248 0-43.952-12.992-86.327-37.572-122.544-24-35.363-57.454-62.733-96.746-79.152-3.822-1.597-5.626-5.99-4.028-9.812 1.597-3.822 5.988-5.626 9.812-4.028 41.988 17.545 77.734 46.789 103.374 84.568 26.273 38.713 40.161 84 40.161 130.968 0 37.348-8.556 73.036-25.429 106.071-13.185 25.814-31.341 49.218-53.068 68.551 12.989 3.257 23.567 13.341 27.135 26.716l4.699 17.627c14.437 2.297 26.491 12.911 30.349 27.373l6.062 22.73c.6 2.251.12 4.654-1.3 6.502-1.422 1.847-3.62 2.93-5.95 2.93zm-422.238-15h412.477l-3.547-13.297c-2.622-9.834-11.562-16.703-21.74-16.703h-239.122c-4.143 0-7.5-3.358-7.5-7.5s3.357-7.5 7.5-7.5h229.359l-3.546-13.298c-2.622-9.834-11.562-16.702-21.74-16.702h-291.806c-10.178 0-19.118 6.868-21.74 16.703l-3.547 13.297h83.021c4.143 0 7.5 3.358 7.5 7.5s-3.357 7.5-7.5 7.5h-92.782c-10.178 0-19.118 6.868-21.74 16.703zm238.1-277.309c-4.411 0-8-3.589-8-8s3.589-8 8-8 8 3.589 8 8-3.589 8-8 8zm45.326-16.689c-7.523 0-9.877-8.544-11.008-12.65-1.246-4.521-2.367-10.262-3.451-15.813-.906-4.64-2.216-11.345-3.157-14.225-2.104-.843-6.408-2.022-9.42-2.848-12.268-3.362-21.958-6.018-21.958-14.523s9.689-11.161 21.958-14.522c3.011-.825 7.315-2.005 9.42-2.848.941-2.879 2.251-9.585 3.157-14.225 1.084-5.552 2.205-11.292 3.451-15.814 1.131-4.106 3.484-12.65 11.008-12.65s9.877 8.544 11.008 12.65c1.246 4.521 2.367 10.262 3.451 15.814.906 4.64 2.216 11.345 3.157 14.225 2.104.843 6.409 2.022 9.42 2.848 12.269 3.362 21.958 6.017 21.958 14.522s-9.69 11.161-21.958 14.523c-3.011.825-7.315 2.005-9.42 2.848-.941 2.879-2.251 9.585-3.157 14.225-1.084 5.551-2.205 11.292-3.451 15.813-1.131 4.106-3.484 12.65-11.008 12.65zm-23.276-60.059c.068.019.138.038.205.057 8.831 2.42 13.572 3.816 16.426 6.668 2.883 2.883 4.114 7.771 6.646 20.652 2.531-12.881 3.763-17.769 6.645-20.651 2.854-2.853 7.595-4.249 16.427-6.669.067-.019.136-.037.205-.056-.069-.019-.137-.037-.204-.056-8.833-2.42-13.574-3.816-16.428-6.669-2.882-2.883-4.113-7.771-6.645-20.652-2.531 12.88-3.763 17.769-6.645 20.651-2.854 2.854-7.596 4.25-16.428 6.669-.067.019-.136.038-.204.056zm6.598 17.81c.001 0 .001 0 0 0zm50.962 26.679c-4.411 0-8-3.589-8-8s3.589-8 8-8 8 3.589 8 8-3.589 8-8 8zm-199.046-79.451c-4.411 0-8-3.589-8-8s3.589-8 8-8 8 3.589 8 8-3.589 8-8 8zm119.436-.5c-12.406 0-22.5-10.093-22.5-22.5s10.094-22.5 22.5-22.5 22.5 10.093 22.5 22.5-10.093 22.5-22.5 22.5zm0-30c-4.136 0-7.5 3.364-7.5 7.5s3.364 7.5 7.5 7.5 7.5-3.364 7.5-7.5-3.364-7.5-7.5-7.5zm-50.897 4.744c-4.411 0-8-3.589-8-8s3.589-8 8-8 8 3.589 8 8-3.589 8-8 8z"/></g></svg>