<svg id="Layer_1" height="512" viewBox="0 0 512 512" width="512" xmlns="http://www.w3.org/2000/svg" data-name="Layer 1"><path d="m362.334 98.616-17.365 22.12 23.266 18.265 16.955-22.441z"/><path d="m249.748 295.829-26.131-20.515-22.62 28.813 26.665 20.934z"/><path d="m183.711 354.435a23.821 23.821 0 0 0 -14.776-5.127 24.32 24.32 0 0 0 -2.919.175 24.008 24.008 0 1 0 21.754 38.66 24.006 24.006 0 0 0 -4.059-33.708z"/><path d="m229.792 267.449 25.985 20.4 22.086-29.232-25.452-19.981z"/><path d="m352.318 77.125a2.1 2.1 0 0 0 .809 1.55l51.762 40.636a2.121 2.121 0 0 0 3.1-.535l35.916-64.466c.024-.043.049-.087.075-.13a2.125 2.125 0 0 0 -.512-2.756l-35.309-27.724a2.127 2.127 0 0 0 -2.8.157l-52.411 51.643a2.1 2.1 0 0 0 -.63 1.625zm47.963-30.8a5 5 0 0 1 7.02-.846l16.826 13.211a5 5 0 1 1 -6.174 7.865l-16.827-13.21a5 5 0 0 1 -.845-7.02zm-18.717 23.841a5 5 0 0 1 7.02-.846l16.827 13.21a5 5 0 0 1 -6.175 7.866l-16.826-13.211a5 5 0 0 1 -.846-7.019z"/><path d="m380.828 33.99 7.8-7.678-11.665-9.159a5.427 5.427 0 0 0 -6.7 8.537z"/><path d="m341.005 46.93a5.433 5.433 0 0 0 .917 7.62l10.038 7.88 7.8-7.678-11.132-8.739a5.43 5.43 0 0 0 -7.623.917z"/><path d="m316.175 157.414 23.945 18.799 22.086-29.232-23.412-18.38z"/><path d="m200.566 360.925 21.067-27.885-26.811-21.047-21.649 27.576a34.09 34.09 0 0 1 27.393 21.356z"/><path d="m433.558 124.468a5.426 5.426 0 0 0 2.7-9.655l-10.166-7.981-5.347 9.6 8.812 6.918a5.386 5.386 0 0 0 4.001 1.118z"/><path d="m258.586 230.771 25.305 19.866 22.086-29.232-24.772-19.447z"/><path d="m287.381 194.092 24.625 19.332 22.086-29.231-24.092-18.914z"/><path d="m449.988 88.285a5.427 5.427 0 0 0 6.7-8.537l-10.788-8.471-5.348 9.6z"/><path d="m54.011 417.081a90.465 90.465 0 0 0 180.089-7.605 45.889 45.889 0 0 1 17.241-34.021 68.4 68.4 0 0 0 12.447-12.89c19.473-26.3 17.288-57.408 4.18-74.269l-65.093 86.155a34.016 34.016 0 0 1 -29.927 32.631 34.461 34.461 0 0 1 -4.133.249 34.012 34.012 0 0 1 -9.154-66.749l66.212-84.341c-24.059-10.669-53.906 2.967-70.313 23.865a68.375 68.375 0 0 0 -8.094 13.116 46.576 46.576 0 0 1 -28.962 25.26 90.285 90.285 0 0 0 -64.5 98.6zm29.15-11.2a15.889 15.889 0 0 1 22.281-2.685l49.485 38.849a15.869 15.869 0 0 1 -19.6 24.964l-49.482-38.852a15.869 15.869 0 0 1 -2.684-22.28z"/><path d="m92.019 420.291 49.481 38.849a5.869 5.869 0 0 0 7.248-9.234l-49.48-38.847a5.869 5.869 0 0 0 -7.249 9.232z"/><path d="m230.254 111.6h-29.347a15.527 15.527 0 0 0 -11.225 4.792 14.855 14.855 0 0 0 -4.106 10.95l-.148 27.658a16.794 16.794 0 1 0 9.888 15.836h.027l.233-43.566c0-.1 0-.192-.007-.288a4.953 4.953 0 0 1 1.366-3.7 5.413 5.413 0 0 1 3.972-1.676h29.347a5.645 5.645 0 0 1 5.639 5.638v24.2a16.793 16.793 0 1 0 9.992 15.522h.007v-.145-.028-.029-39.524a15.656 15.656 0 0 0 -15.638-15.64z"/><path d="m88.577 105.961a15.259 15.259 0 1 0 15.213 16.144c.013-.143.044-.281.045-.428l.121-28.386h18.816a5 5 0 0 0 0-10h-18.772l.04-9.293c0-.095 0-.189-.007-.284a3.614 3.614 0 0 1 1.009-2.734 4.059 4.059 0 0 1 2.98-1.254h25.517a5 5 0 0 0 0-10h-25.519a14.155 14.155 0 0 0 -10.234 4.374 13.564 13.564 0 0 0 -3.749 9.985l-.06 14.208-.08 18.645a15.158 15.158 0 0 0 -5.32-.977z"/><path d="m423.055 376.764h-29.347a15.528 15.528 0 0 0 -11.227 4.793 14.857 14.857 0 0 0 -4.105 10.949l-.147 27.652a16.795 16.795 0 1 0 9.888 15.836h.027l.233-43.565c0-.1 0-.193-.007-.289a4.948 4.948 0 0 1 1.365-3.7 5.413 5.413 0 0 1 3.973-1.676h29.347a5.644 5.644 0 0 1 5.638 5.638v24.2a16.793 16.793 0 1 0 9.992 15.522h.007v-39.724a15.655 15.655 0 0 0 -15.637-15.636z"/><path d="m349.084 273.334a13.564 13.564 0 0 0 -3.749 9.985l-.14 32.855a15.252 15.252 0 1 0 9.893 15.167c.013-.143.044-.281.045-.427l.1-23.486h19.1a5 5 0 0 0 0-10h-19.058l.06-14.193c0-.094 0-.189-.006-.283a3.615 3.615 0 0 1 1.009-2.735 4.056 4.056 0 0 1 2.98-1.254h25.516a5 5 0 0 0 0-10h-25.516a14.155 14.155 0 0 0 -10.234 4.371z"/></svg>