<?xml version="1.0" encoding="iso-8859-1"?>
<!-- Generator: Adobe Illustrator 19.0.0, SVG Export Plug-In . SVG Version: 6.00 Build 0)  -->
<svg version="1.1" id="Capa_1" xmlns="http://www.w3.org/2000/svg" xmlns:xlink="http://www.w3.org/1999/xlink" x="0px" y="0px"
	 viewBox="0 0 512 512" style="enable-background:new 0 0 512 512;" xml:space="preserve">
<g>
	<g>
		<path d="M365.216,61.613c-12.54,0-22.742,10.202-22.742,22.742v23.47c0,4.143,3.357,7.5,7.5,7.5h30.485c4.143,0,7.5-3.357,7.5-7.5
			v-23.47C387.959,71.815,377.757,61.613,365.216,61.613z M372.959,100.325h-15.485v-15.97c0-4.27,3.473-7.742,7.742-7.742
			c4.269,0,7.743,3.473,7.743,7.742V100.325z"/>
	</g>
</g>
<g>
	<g>
		<path d="M482.114,236.685h-28.579c-4.143,0-7.5,3.357-7.5,7.5v15.938h-13.579v-15.938c0-4.143-3.357-7.5-7.5-7.5h-6.79v-25.026
			h7.742c4.143,0,7.5-3.357,7.5-7.5v-72.507c0-4.143-3.357-7.5-7.5-7.5h-4.131V74.048h14.888c4.143,0,7.5-3.357,7.5-7.5V7.5
			c0-4.143-3.357-7.5-7.5-7.5h-28.58c-4.143,0-7.5,3.357-7.5,7.5v15.938h-13.579V7.5c0-4.143-3.357-7.5-7.5-7.5h-28.579
			c-4.143,0-7.5,3.357-7.5,7.5v15.938h-13.579V7.5c0-4.143-3.357-7.5-7.5-7.5h-28.58c-4.143,0-7.5,3.357-7.5,7.5v59.048
			c0,4.143,3.357,7.5,7.5,7.5h14.888v86.999h-10.142v-29.396c0-4.143-3.357-7.5-7.5-7.5h-26.098V49.955c0-4.143-3.357-7.5-7.5-7.5
			c-4.142,0-7.5,3.357-7.5,7.5v4.274l-57.913,21.068c-2.963,1.078-4.936,3.895-4.936,7.048c0,3.153,1.973,5.97,4.936,7.048
			l57.913,21.068v13.691h-26.349c-4.142,0-7.5,3.357-7.5,7.5v29.396h-52.447v-29.396c0-4.143-3.358-7.5-7.5-7.5h-26.308V49.955
			c0-4.143-3.358-7.5-7.5-7.5c-4.142,0-7.5,3.357-7.5,7.5v4.274L56.9,75.297c-2.963,1.078-4.936,3.895-4.936,7.048
			c0,3.153,1.973,5.97,4.936,7.048l57.912,21.068v13.691h-26.14c-4.142,0-7.5,3.357-7.5,7.5v72.507c0,4.143,3.358,7.5,7.5,7.5h8.02
			v25.026h-9.647c-4.142,0-7.5,3.357-7.5,7.5v15.938h-13.58v-15.938c0-4.143-3.358-7.5-7.5-7.5H29.885c-4.142,0-7.5,3.357-7.5,7.5
			v59.048c0,4.143,3.358,7.5,7.5,7.5h14.887v110.179c0,4.143,3.358,7.5,7.5,7.5c4.142,0,7.5-3.357,7.5-7.5v-117.68
			c0-4.143-3.358-7.5-7.5-7.5H37.385v-44.048h13.579v15.938c0,4.143,3.358,7.5,7.5,7.5h28.58c4.142,0,7.5-3.357,7.5-7.5v-15.938
			h13.579v15.938c0,4.143,3.358,7.5,7.5,7.5h28.58c4.142,0,7.5-3.357,7.5-7.5v-15.938h13.579v44.048h-14.887
			c-4.142,0-7.5,3.357-7.5,7.5v78.679c0,4.143,3.358,7.5,7.5,7.5c4.142,0,7.5-3.357,7.5-7.5v-71.179h14.887
			c4.142,0,7.5-3.357,7.5-7.5v-59.048c0-4.143-3.358-7.5-7.5-7.5h-28.579c-4.142,0-7.5,3.357-7.5,7.5v15.938h-13.58v-15.938
			c0-4.143-3.358-7.5-7.5-7.5h-3.932v-25.026h131.219c4.142,0,7.5-3.357,7.5-7.5s-3.358-7.5-7.5-7.5H96.171v-57.507h52.447v29.396
			c0,4.143,3.358,7.5,7.5,7.5h67.447c4.142,0,7.5-3.357,7.5-7.5v-29.396h52.447v29.396c0,4.143,3.357,7.5,7.5,7.5h67.447
			c4.143,0,7.5-3.357,7.5-7.5v-29.396h52.447v57.507H277.089c-4.143,0-7.5,3.357-7.5,7.5s3.357,7.5,7.5,7.5h126.077v25.026h-6.79
			c-4.143,0-7.5,3.357-7.5,7.5v15.938h-13.579v-15.938c0-4.143-3.357-7.5-7.5-7.5h-28.579c-4.143,0-7.5,3.357-7.5,7.5v59.048
			c0,4.143,3.357,7.5,7.5,7.5h14.887V497h-29.973V394.369c0-38.805-31.57-70.375-70.375-70.375c-7.627,0-14.967,1.236-21.85,3.49
			c-0.402,0.102-0.793,0.231-1.166,0.396c-27.532,9.559-47.358,35.745-47.358,66.49V497h-25.487v-80.911c0-4.143-3.358-7.5-7.5-7.5
			c-4.142,0-7.5,3.357-7.5,7.5V497h-38.703h-44.42v-41.911c0-4.143-3.358-7.5-7.5-7.5c-4.142,0-7.5,3.357-7.5,7.5V504.5
			c0,4.143,3.358,7.5,7.5,7.5h407.455c4.143,0,7.5-3.357,7.5-7.5V310.732h14.887c4.143,0,7.5-3.357,7.5-7.5v-59.048
			C489.614,240.042,486.257,236.685,482.114,236.685z M114.812,94.5l-33.41-12.155l33.41-12.154V94.5z M249.916,94.5l-33.41-12.155
			l33.41-12.154V94.5z M414.276,59.048c-4.143,0-7.5,3.357-7.5,7.5v57.604h-48.315v-0.001c-4.143,0-7.5,3.357-7.5,7.5v29.396
			h-27.306V66.548c0-4.143-3.357-7.5-7.5-7.5h-14.888V15h13.58v15.938c0,4.143,3.357,7.5,7.5,7.5h28.579c4.143,0,7.5-3.357,7.5-7.5
			V15h13.579v15.938c0,4.143,3.357,7.5,7.5,7.5h28.579c4.143,0,7.5-3.357,7.5-7.5V15h13.58v44.048H414.276z M309.131,497h-34.538
			v-51.188c0-4.143-3.357-7.5-7.5-7.5s-7.5,3.357-7.5,7.5V497H223.15v-17.815c0-4.143-3.358-7.5-7.5-7.5c-4.142,0-7.5,3.357-7.5,7.5
			V497h-9.769V394.369c0-20.526,11.235-38.466,27.869-48.03v109.952c0,4.143,3.358,7.5,7.5,7.5c4.142,0,7.5-3.357,7.5-7.5V340.436
			c4.022-0.932,8.204-1.442,12.505-1.442c30.534,0,55.375,24.841,55.375,55.375V497z M459.727,295.732c-4.143,0-7.5,3.357-7.5,7.5
			V497h-41.562h-41.562V303.232c0-4.143-3.357-7.5-7.5-7.5h-14.887v-44.048h13.579v15.938c0,4.143,3.357,7.5,7.5,7.5h28.579
			c4.143,0,7.5-3.357,7.5-7.5v-15.938h13.58v15.938c0,4.143,3.357,7.5,7.5,7.5h28.579c4.143,0,7.5-3.357,7.5-7.5v-15.938h13.579
			v44.048H459.727z"/>
	</g>
</g>
<g>
	<g>
		<path d="M410.666,319.231c-12.54,0-22.742,10.202-22.742,22.742v23.47c0,4.143,3.357,7.5,7.5,7.5h30.484
			c4.143,0,7.5-3.357,7.5-7.5v-23.47C433.408,329.434,423.206,319.231,410.666,319.231z M418.408,357.943h-15.484v-15.97
			c0-4.27,3.473-7.742,7.742-7.742c4.269,0,7.742,3.473,7.742,7.742V357.943z"/>
	</g>
</g>
<g>
	<g>
		<path d="M101.333,319.231c-12.54,0-22.742,10.202-22.742,22.742v23.47c0,4.143,3.358,7.5,7.5,7.5h30.484
			c4.142,0,7.5-3.357,7.5-7.5v-23.47C124.075,329.434,113.874,319.231,101.333,319.231z M109.075,357.943H93.591v-15.97
			c0-4.27,3.473-7.742,7.742-7.742c4.269,0,7.742,3.473,7.742,7.742V357.943z"/>
	</g>
</g>
<g>
	<g>
		<path d="M267.094,388.019c-4.143,0-7.5,3.357-7.5,7.5v17.903c0,4.142,3.357,7.5,7.5,7.5s7.5-3.357,7.5-7.5v-17.903
			C274.594,391.376,271.237,388.019,267.094,388.019z"/>
	</g>
</g>
<g>
	<g>
		<path d="M293.768,369.251c-4.143,0-7.5,3.357-7.5,7.5v64.298c0,4.142,3.357,7.5,7.5,7.5s7.5-3.357,7.5-7.5v-64.298
			C301.268,372.608,297.911,369.251,293.768,369.251z"/>
	</g>
</g>
<g>
	<g>
		<path d="M400.045,396.97h-9.243c-4.143,0-7.5,3.357-7.5,7.5s3.357,7.5,7.5,7.5h9.243c4.143,0,7.5-3.357,7.5-7.5
			S404.188,396.97,400.045,396.97z"/>
	</g>
</g>
<g>
	<g>
		<path d="M422.712,419.5h-9.243c-4.143,0-7.5,3.357-7.5,7.5s3.357,7.5,7.5,7.5h9.243c4.143,0,7.5-3.357,7.5-7.5
			S426.854,419.5,422.712,419.5z"/>
	</g>
</g>
<g>
	<g>
		<path d="M296.712,269.833h-9.243c-4.143,0-7.5,3.357-7.5,7.5s3.357,7.5,7.5,7.5h9.243c4.143,0,7.5-3.357,7.5-7.5
			S300.855,269.833,296.712,269.833z"/>
	</g>
</g>
<g>
	<g>
		<path d="M282.712,244.167h-9.243c-4.143,0-7.5,3.357-7.5,7.5s3.357,7.5,7.5,7.5h9.243c4.143,0,7.5-3.357,7.5-7.5
			S286.854,244.167,282.712,244.167z"/>
	</g>
</g>
<g>
	<g>
		<path d="M119.377,416.5h-9.243c-4.142,0-7.5,3.357-7.5,7.5s3.358,7.5,7.5,7.5h9.243c4.142,0,7.5-3.357,7.5-7.5
			S123.52,416.5,119.377,416.5z"/>
	</g>
</g>
<g>
	<g>
		<path d="M93.294,463.297h-9.243c-4.142,0-7.5,3.357-7.5,7.5s3.358,7.5,7.5,7.5h9.243c4.142,0,7.5-3.357,7.5-7.5
			S97.436,463.297,93.294,463.297z"/>
	</g>
</g>
<g>
	<g>
		<path d="M251.627,284.833h-9.243c-4.142,0-7.5,3.357-7.5,7.5s3.358,7.5,7.5,7.5h9.243c4.142,0,7.5-3.357,7.5-7.5
			S255.77,284.833,251.627,284.833z"/>
	</g>
</g>
<g>
	<g>
		<path d="M224.895,227.833h-9.243c-4.142,0-7.5,3.357-7.5,7.5s3.358,7.5,7.5,7.5h9.243c4.142,0,7.5-3.357,7.5-7.5
			S229.036,227.833,224.895,227.833z"/>
	</g>
</g>
<g>
	<g>
		<path d="M396.807,170.109h-9.243c-4.143,0-7.5,3.357-7.5,7.5s3.357,7.5,7.5,7.5h9.243c4.143,0,7.5-3.357,7.5-7.5
			S400.95,170.109,396.807,170.109z"/>
	</g>
</g>
<g>
	<g>
		<path d="M127.768,156.833h-9.243c-4.142,0-7.5,3.357-7.5,7.5s3.358,7.5,7.5,7.5h9.243c4.142,0,7.5-3.357,7.5-7.5
			S131.911,156.833,127.768,156.833z"/>
	</g>
</g>
<g>
</g>
<g>
</g>
<g>
</g>
<g>
</g>
<g>
</g>
<g>
</g>
<g>
</g>
<g>
</g>
<g>
</g>
<g>
</g>
<g>
</g>
<g>
</g>
<g>
</g>
<g>
</g>
<g>
</g>
</svg>
