<svg id="Capa_1" enable-background="new 0 0 354.059 354.059" height="512" viewBox="0 0 354.059 354.059" width="512" xmlns="http://www.w3.org/2000/svg"><path d="m135.724 135.727h11.802v11.802h-11.802z"/><path d="m171.129 135.727h11.802v11.802h-11.802z"/><path d="m206.534 135.727h11.802v11.802h-11.802z"/><path d="m306.33 267.954-25.828-20.234c0-.201.041-.372.041-.572 0-8.769-7.14-17.697-14.699-27.15-5.387-6.739-12.103-15.13-12.103-19.756h-11.802c0 8.769 7.134 17.691 14.693 27.138 5.393 6.745 12.109 15.136 12.109 19.774 0 9.323-3.777 14.198-7.5 14.198-2.508 0-6.709 0-7.5-.803v-6.804h-10.869v-2.602c0-4.024-1.57-7.807-4.615-10.852l-12.651-11.507c9.483-19.603 11.383-40.81 11.324-54.76 4.119 6.656 10.144 14.221 17.874 18.092 12.752 6.373 16.841 11.607 16.841 21.521h11.802c0-16.93-9.341-25.067-23.362-32.083-6.355-3.181-11.719-10.976-15.142-17.26 1.699-1.033 2.897-2.821 2.897-4.963 0-8.238-1.009-16.422-2.72-24.4 31.511-24.955 44.28-66.999 32.461-108.352l-6.367-22.288c-.808-2.832-3.6-4.668-6.491-4.225-2.909.407-5.081 2.897-5.081 5.842v7.075c0 30.047-13.513 57.244-36.397 73.838-8.303-10.81-18.104-19.154-28.513-23.751v-9.955c0-6.509-5.293-11.802-11.802-11.802h-11.802c-6.509 0-11.802 5.293-11.802 11.802v9.955c-10.38 4.585-20.146 12.888-28.43 23.645-22.936-16.624-36.479-43.779-36.479-73.732v-7.075c0-2.945-2.172-5.435-5.081-5.842-2.897-.419-5.683 1.387-6.491 4.225l-6.367 22.288c-11.713 40.993 1.109 82.789 32.591 107.726-1.794 8.173-2.85 16.576-2.85 25.026 0 2.142 1.198 3.93 2.903 4.963-3.423 6.284-8.786 14.079-15.142 17.26-14.02 7.01-23.362 15.148-23.362 32.083h11.802c0-9.919 4.089-15.148 16.841-21.521 8.314-4.16 14.646-12.592 18.765-19.573.46 14.085 2.596 36.68 10.651 56.111l-12.675 11.831c-2.844 2.844-4.414 6.633-4.414 10.657v2.602h-11.271l.248 6.898c-1.039.702-5.234.702-7.748.702-3.729 0-7.5-4.874-7.5-14.198 0-4.632 6.715-13.029 12.109-19.774 7.559-9.447 14.693-18.364 14.693-27.138h-11.802c0 4.626-6.715 13.017-12.109 19.762-7.559 9.453-14.699 18.375-14.699 27.15 0 .525.089.974.106 1.481l-25.94 19.367c-7.795 6.243-12.268 15.549-12.268 25.533v60.531h11.803v-33.281l86.755 27.109c.578.183 1.168.271 1.758.271 1.882 0 3.7-.903 4.827-2.508l27.604-39.288 4.892 4.892c1.151 1.151 2.661 1.729 4.172 1.729s3.021-.578 4.172-1.729l4.821-4.821 27.274 39.188c1.133 1.623 2.956 2.537 4.85 2.537.584 0 1.168-.089 1.741-.266l86.772-26.825v32.992h11.802v-60.531c.001-9.983-4.472-19.289-12.32-25.573zm-105.697-61.417h-23.603-23.604c-6.875 0-13.017 3.004-17.337 7.712-5.6-18.965-6.373-39.418-6.373-49.019h95.051c.637 9.241.956 29.811-6.155 49.792-4.336-5.145-10.744-8.485-17.979-8.485zm10.215 17.703h-16.115c-4.361 0-8.173-2.372-10.214-5.901h16.115c4.36 0 8.172 2.372 10.214 5.901zm-41.306-5.901c-2.042 3.529-5.86 5.901-10.214 5.901h-16.115c2.042-3.529 5.86-5.901 10.214-5.901zm1.587-100.315v-46.564c1.965-.389 3.93-.643 5.901-.643s3.936.254 5.901.643v46.564zm60.631 11.802c2.189 7.648 3.623 15.602 4.101 23.604h-117.663c.478-8.002 1.912-15.956 4.101-23.604zm36.609-91.027c6.072 31.865-3.906 63.145-26.566 83.515-3.027-9.264-7.099-17.992-11.914-25.869 19.267-13.885 32.78-34.231 38.48-57.646zm-40.727 79.225h-32.909v-41.914c13.294 7.713 25.302 23.232 32.909 41.914zm-56.513-64.909h11.802v6.402c-1.959-.295-3.93-.502-5.901-.502s-3.942.207-5.901.502zm-11.802 22.995v41.914h-32.909c7.606-18.682 19.614-34.201 32.909-41.914zm-73.637-37.388c5.712 23.367 19.249 43.708 38.55 57.61-4.75 7.754-8.769 16.34-11.79 25.45-23.072-20.487-32.962-51.077-26.76-83.06zm47.685 296.62-86.165-26.926v-14.888c0-6.385 2.856-12.333 7.689-16.198l21.509-16.056c3.576 7.771 9.984 11.873 16.41 11.873 5.523 0 16.286-.03 18.759-8.668v2.773c0 2.048 1.062 3.942 2.797 5.022 1.747 1.086 3.918 1.162 5.742.26l5.753-2.874c1.033 4.921 3.127 10.822 7.353 15.047l13.277 13.277c1.688 1.682 4.219 2.195 6.432 1.28 1.924-.797 3.263-2.537 3.57-4.55l3.181 3.181zm43.849-36.597-22.382-22.382c-1.694-1.694-4.231-2.207-6.432-1.28-1.924.797-3.263 2.537-3.57 4.55l-3.275-3.275c-3.983-3.983-4.898-12.722-4.91-15.744 0-2.048-1.062-3.942-2.797-5.022-1.741-1.086-3.918-1.174-5.742-.26l-4.738 2.366v-6.568c0-.862.354-1.705.814-2.172l13.855-12.917h21.279c7.081 0 13.371-3.198 17.703-8.155 4.331 4.957 10.622 8.155 17.703 8.155h21.326l14.056 12.775c.62.62.962 1.446.962 2.325v6.568l-4.738-2.366c-1.829-.915-4.001-.826-5.742.26-1.735 1.08-2.797 2.974-2.797 5.022 0 2.815-.903 11.731-4.91 15.744l-3.275 3.275c-.313-2.018-1.652-3.759-3.57-4.55-2.213-.926-4.744-.413-6.432 1.28zm43.49 36.603-26.023-37.388 3.251-3.251c.313 2.018 1.652 3.759 3.57 4.55 2.207.915 4.744.401 6.432-1.28l13.277-13.277c4.225-4.225 6.32-10.126 7.352-15.047l5.753 2.874c1.829.903 4.001.826 5.742-.26 1.735-1.08 2.797-2.974 2.797-5.022v-1.829c2.998 7.636 13.07 7.718 18.369 7.718 6.585 0 13.147-4.308 16.664-12.469l21.096 16.528c4.998 4.001 7.854 9.949 7.854 16.334v15.189z"/><path d="m208.664 174.537-20.098 6.703 3.729 11.188 2.437-.808v3.116h11.802v-7.052l5.866-1.953z"/><path d="m141.66 185.731 5.865 1.953v7.052h11.802v-3.116l2.437.808 3.73-11.188-20.099-6.703z"/></svg>