<svg id="Capa_1" data-name="Capa 1" xmlns="http://www.w3.org/2000/svg" viewBox="0 0 75.77 75.77"><defs><style>.cls-1{fill:#aa54ff;}.cls-2{fill:#fff;}</style></defs><title>dado_de_20_caras</title><path class="cls-1" d="M79.51,27.49,72,20a17.39,17.39,0,0,0-7.8-4.5L54,12.74a17.42,17.42,0,0,0-9,0L34.72,15.49a17.39,17.39,0,0,0-7.8,4.5l-7.5,7.5a17.41,17.41,0,0,0-4.51,7.8L12.17,45.53a17.42,17.42,0,0,0,0,9l2.74,10.24a17.41,17.41,0,0,0,4.51,7.8l7.5,7.5a17.39,17.39,0,0,0,7.8,4.5L45,87.33a17.42,17.42,0,0,0,9,0l10.24-2.75a17.39,17.39,0,0,0,7.8-4.5l7.5-7.5a17.39,17.39,0,0,0,4.5-7.8l2.74-10.24a17.42,17.42,0,0,0,0-9L84,35.29A17.39,17.39,0,0,0,79.51,27.49Z" transform="translate(-11.58 -12.15)"/><path class="cls-2" d="M34.54,58.74l8-10.67a8.05,8.05,0,0,0,1.08-1.9A5.22,5.22,0,0,0,44,44.33v0a2.82,2.82,0,0,0-.8-2.13,3.24,3.24,0,0,0-2.29-.76,3.16,3.16,0,0,0-2.27.83,3.82,3.82,0,0,0-1.06,2.35H34.25a8.61,8.61,0,0,1,1.16-3.37,5.94,5.94,0,0,1,2.27-2.13,6.72,6.72,0,0,1,3.2-.74,7.94,7.94,0,0,1,3.5.71,4.87,4.87,0,0,1,2.21,2,6.51,6.51,0,0,1,.76,3.23v0a7.05,7.05,0,0,1-.51,2.54,10.92,10.92,0,0,1-1.4,2.56l-6.64,9h8.67v3.06H34.54Z" transform="translate(-11.58 -12.15)"/><path class="cls-2" d="M53.24,60.05a6.62,6.62,0,0,1-1.66-4.8V44.82a6.56,6.56,0,1,1,13.09,0V55.25A6.64,6.64,0,0,1,63,60.06a6.53,6.53,0,0,1-4.88,1.71A6.52,6.52,0,0,1,53.24,60.05Zm7.4-2.23a3.7,3.7,0,0,0,.81-2.57V44.82a3.72,3.72,0,0,0-.8-2.56,4,4,0,0,0-5,0,3.67,3.67,0,0,0-.81,2.56V55.25a3.66,3.66,0,0,0,.82,2.57,4,4,0,0,0,5,0Z" transform="translate(-11.58 -12.15)"/></svg>