<svg id="Capa_1" data-name="Capa 1" xmlns="http://www.w3.org/2000/svg" viewBox="0 0 66.16 71.7"><defs><style>.cls-1{fill:#00e600;}.cls-2{fill:#fff;}</style></defs><title>dado_de_8_caras</title><path class="cls-1" d="M75.19,26.56,57.28,16.22a15.17,15.17,0,0,0-15.17,0L24.2,26.56a15.18,15.18,0,0,0-7.59,13.13V60.38A15.17,15.17,0,0,0,24.2,73.51L42.11,83.86a15.22,15.22,0,0,0,15.17,0L75.19,73.51a15.16,15.16,0,0,0,7.58-13.13V39.69A15.17,15.17,0,0,0,75.19,26.56Z" transform="translate(-16.61 -14.19)"/><path class="cls-2" d="M46,61a5.71,5.71,0,0,1-2.43-2.23,6.35,6.35,0,0,1-.86-3.35V55a6.36,6.36,0,0,1,.86-3.23,5.67,5.67,0,0,1,2.29-2.29,5,5,0,0,1-2-1.92,5.13,5.13,0,0,1-.73-2.64v-.55a6.19,6.19,0,0,1,.8-3.17,5.48,5.48,0,0,1,2.28-2.11,8.1,8.1,0,0,1,6.81,0,5.39,5.39,0,0,1,2.27,2.11,6.1,6.1,0,0,1,.81,3.17v.55a5.11,5.11,0,0,1-.75,2.67,5,5,0,0,1-2,1.89,6,6,0,0,1,2.33,2.29A6.37,6.37,0,0,1,56.65,55v.38a6.45,6.45,0,0,1-.86,3.35A5.68,5.68,0,0,1,53.35,61,8.87,8.87,0,0,1,46,61Zm5.64-2.74A3.26,3.26,0,0,0,53,57a3.57,3.57,0,0,0,.47-1.84v-.22A3.61,3.61,0,0,0,53,53.06a3.2,3.2,0,0,0-1.31-1.24,4.65,4.65,0,0,0-4,0,3.12,3.12,0,0,0-1.32,1.25,3.62,3.62,0,0,0-.46,1.86v.23A3.5,3.5,0,0,0,46.4,57a3.14,3.14,0,0,0,1.32,1.23,4.7,4.7,0,0,0,4,0ZM51.4,47.87a2.93,2.93,0,0,0,1.15-1.19A3.81,3.81,0,0,0,53,44.89v-.22a3.48,3.48,0,0,0-.41-1.7,2.75,2.75,0,0,0-1.15-1.14,3.52,3.52,0,0,0-1.71-.41,3.48,3.48,0,0,0-1.7.41A2.75,2.75,0,0,0,46.84,43a3.42,3.42,0,0,0-.41,1.72v.24a3.56,3.56,0,0,0,.41,1.75A2.93,2.93,0,0,0,48,47.87a3.37,3.37,0,0,0,1.7.42A3.41,3.41,0,0,0,51.4,47.87Z" transform="translate(-16.61 -14.19)"/></svg>