<svg id="Capa_1" data-name="Capa 1" xmlns="http://www.w3.org/2000/svg" viewBox="0 0 79.42 77.15"><defs><style>.cls-1{fill:#ffe000;}.cls-2{fill:#fff;}</style></defs><title>dado_de_12_caras</title><path class="cls-1" d="M56.69,11.46H42.38a16.6,16.6,0,0,0-9.73,3.16L21.08,23a16.6,16.6,0,0,0-6,8.28L10.64,44.92a16.56,16.56,0,0,0,0,10.23l4.42,13.61a16.56,16.56,0,0,0,6,8.28l11.57,8.41a16.6,16.6,0,0,0,9.73,3.16H56.69a16.56,16.56,0,0,0,9.73-3.16L78,77a16.62,16.62,0,0,0,6-8.28l4.42-13.61a16.56,16.56,0,0,0,0-10.23L84,31.31A16.66,16.66,0,0,0,78,23L66.42,14.62A16.56,16.56,0,0,0,56.69,11.46Z" transform="translate(-9.83 -11.46)"/><path class="cls-2" d="M43.88,61.62H40.66V42.19l-3.26,2V40.86l3.26-2.17h3.22Z" transform="translate(-9.83 -11.46)"/><path class="cls-2" d="M48.74,58.83l8-10.66a8.25,8.25,0,0,0,1.08-1.9,5,5,0,0,0,.39-1.84v0a2.76,2.76,0,0,0-.81-2.13,3.67,3.67,0,0,0-4.56.07,3.76,3.76,0,0,0-1.05,2.34v0H48.46v0a8.51,8.51,0,0,1,1.16-3.37,5.91,5.91,0,0,1,2.26-2.13,6.77,6.77,0,0,1,3.2-.73,8,8,0,0,1,3.51.7,5,5,0,0,1,2.21,2,6.58,6.58,0,0,1,.75,3.24h0a7.25,7.25,0,0,1-.5,2.54,10.93,10.93,0,0,1-1.41,2.56l-6.64,9h8.68v3.06H48.74Z" transform="translate(-9.83 -11.46)"/></svg>