<svg id="Capa_1" data-name="Capa 1" xmlns="http://www.w3.org/2000/svg" viewBox="0 0 96.81 92.45"><defs><style>.cls-1{fill:#00d6ff;}.cls-2{fill:#fff;}</style></defs><title>dado_de_10_caras</title><path class="cls-1" d="M94.1,27.28,55.37,4.92a9.66,9.66,0,0,0-9.67,0L7,27.28a9.68,9.68,0,0,0-4.84,8.37V64A9.68,9.68,0,0,0,7,72.41L45.7,94.77a9.66,9.66,0,0,0,9.67,0L94.1,72.41A9.66,9.66,0,0,0,98.94,64V35.65A9.66,9.66,0,0,0,94.1,27.28Z" transform="translate(-2.13 -3.62)"/><path class="cls-2" d="M43.16,64.19h-4V39.93l-4.08,2.5V38.28l4.08-2.72h4Z" transform="translate(-2.13 -3.62)"/><path class="cls-2" d="M51.74,62.34a8.24,8.24,0,0,1-2.08-6v-13a8.21,8.21,0,0,1,2.09-6,8.12,8.12,0,0,1,6.08-2.13q4,0,6.09,2.12a8.22,8.22,0,0,1,2.08,6v13a8.23,8.23,0,0,1-2.09,6,8.14,8.14,0,0,1-6.08,2.13Q53.81,64.48,51.74,62.34ZM61,59.55a4.57,4.57,0,0,0,1-3.2v-13a4.61,4.61,0,0,0-1-3.2A4.05,4.05,0,0,0,57.83,39a4.05,4.05,0,0,0-3.15,1.11,4.61,4.61,0,0,0-1,3.2v13a4.57,4.57,0,0,0,1,3.2,4.06,4.06,0,0,0,3.14,1.11A4.06,4.06,0,0,0,61,59.55Z" transform="translate(-2.13 -3.62)"/></svg>