<svg id="Capa_1" data-name="Capa 1" xmlns="http://www.w3.org/2000/svg" viewBox="0 0 62.49 62.49"><defs><style>.cls-1{fill:#ff7bff;}.cls-2{fill:#fff;}</style></defs><title>dado_de_6_caras</title><rect class="cls-1" width="62.49" height="62.49" rx="8.95" ry="8.95"/><path class="cls-2" d="M45.84,62.26a6,6,0,0,1-2.47-2.69,9.64,9.64,0,0,1-.85-4.25v0a14.44,14.44,0,0,1,.34-3,17.16,17.16,0,0,1,1-3.13c.07-.18.15-.35.23-.52l.25-.51L50,36.9h3.93l-6.63,13v-.65a3.16,3.16,0,0,1,1.31-1.3,4.13,4.13,0,0,1,2-.47,6.43,6.43,0,0,1,3.47.91A5.7,5.7,0,0,1,56.27,51a10.4,10.4,0,0,1,.76,4.2h0a10.08,10.08,0,0,1-.85,4.3,6,6,0,0,1-2.49,2.72,7.83,7.83,0,0,1-3.93.93A7.92,7.92,0,0,1,45.84,62.26Zm6.6-3.66a4.55,4.55,0,0,0,.94-3.06v0a5.13,5.13,0,0,0-1-3.37A3.41,3.41,0,0,0,49.58,51a3,3,0,0,0-2.52,1.2,5.53,5.53,0,0,0-.89,3.38v0a4.45,4.45,0,0,0,.94,3,3.34,3.34,0,0,0,2.65,1.06A3.39,3.39,0,0,0,52.44,58.6Z" transform="translate(-18.53 -18.79)"/></svg>